<?xml version="1.0" standalone="no"?><!DOCTYPE svg PUBLIC "-//W3C//DTD SVG 1.1//EN" "http://www.w3.org/Graphics/SVG/1.1/DTD/svg11.dtd"><svg t="1733744331816" class="icon" viewBox="0 0 1070 1024" version="1.1" xmlns="http://www.w3.org/2000/svg" p-id="7966" xmlns:xlink="http://www.w3.org/1999/xlink" width="208.984375" height="200"><path d="M1063.985884 379.329287a96.502943 96.502943 0 0 0-77.241663-62.893975l-254.130968-37.146754-110.261-225.435592a98.271836 98.271836 0 0 0-175.316955 0l-110.261001 225.435592-254.130967 37.343298A95.520225 95.520225 0 0 0 5.205123 379.329287a91.196264 91.196264 0 0 0 22.799066 96.109856l186.519944 183.178702-43.239607 254.130968a93.358244 93.358244 0 0 0 40.291452 92.572069 100.826904 100.826904 0 0 0 102.006166 5.30668l221.111631-116.157311 221.111631 117.926204a99.647642 99.647642 0 0 0 102.20271-5.306679 93.554788 93.554788 0 0 0 39.308734-92.57207l-42.453433-255.899861 186.323401-183.178702a91.589351 91.589351 0 0 0 22.799066-96.109856z" fill="#1296db" p-id="7967"></path></svg>